# xmcd CD database file
#
# Track frame offsets:
#	150
#	12770
#	26250
#	39808
#	53427
#	66679
#	80243
#	92558
#	104367
#	115507
#	128203
#	141206
#	152108
#	165535
#	177786
#	192139
#	203563
#	215445
#	228808
#	241028
#	253063
#
# Disc length: 3528 seconds
#
# Revision: 0
# Processed by: cddbd v1.5.2PL0 Copyright (c) Steve Scherf et al.
# Submitted via: CDex 1.70beta2
#
DISCID=080dc615
DTITLE=Various Artist - Jazz Roads CD150 - Swing - Muggsy Spanier (1935-39)
DYEAR=2006
DGENRE=Jazz
TTITLE0=New Orleans Rhythm Kings - Baby Brown
TTITLE1=New Orleans Rhythm Kings - No Lovers Allowed
TTITLE2=New Orleans Rhythm Kings - Dust Off That Old Pianna
TTITLE3=New Orleans Rhythm Kings - Dust Off That Old Pianna
TTITLE4=New Orleans Rhythm Kings - Since We Fell Out Of Love
TTITLE5=Muggsy Spanier And His Ragtime Band - Big Butter And Egg Man
TTITLE6=Muggsy Spanier And His Ragtime Band - Someday Sweetheart
TTITLE7=Muggsy Spanier And His Ragtime Band - Eccentric
TTITLE8=Muggsy Spanier And His Ragtime Band - That Da Da Strain
TTITLE9=Muggsy Spanier And His Ragtime Band - At The Jazz Band Ball
TTITLE10=Muggsy Spanier And His Ragtime Band - I Wish I Could Shimmy Like My Sister Kate
TTITLE11=Muggsy Spanier And His Ragtime Band - Dipper Mouth Blues
TTITLE12=Muggsy Spanier And His Ragtime Band - Livery Stable Blues (Barnyard Blues)
TTITLE13=Muggsy Spanier And His Ragtime Band - Riverboat Shuffle
TTITLE14=Muggsy Spanier And His Ragtime Band - Relaxin' At The Touro
TTITLE15=Muggsy Spanier And His Ragtime Band - At Sundown
TTITLE16=Muggsy Spanier And His Ragtime Band - Bluin' The Blues
TTITLE17=Muggsy Spanier And His Ragtime Band - Lonesome Road
TTITLE18=Muggsy Spanier And His Ragtime Band - Dinah
TTITLE19=Muggsy Spanier And His Ragtime Band - (What Did I Do To Be So) Black And Blue
TTITLE20=Muggsy Spanier And His Ragtime Band - Mandy, Make Up Your Mind
EXTD=YEAR: 2006
EXTT0=
EXTT1=
EXTT2=
EXTT3=
EXTT4=
EXTT5=
EXTT6=
EXTT7=
EXTT8=
EXTT9=
EXTT10=
EXTT11=
EXTT12=
EXTT13=
EXTT14=
EXTT15=
EXTT16=
EXTT17=
EXTT18=
EXTT19=
EXTT20=
PLAYORDER=
